<svg width="30" height="30" viewBox="0 0 30 30" fill="none" xmlns="http://www.w3.org/2000/svg">
<path d="M9.5998 1.80005C5.2993 1.80005 1.7998 5.29954 1.7998 9.60005V20.4C1.7998 24.7006 5.2993 28.2001 9.5998 28.2001H20.3998C24.7003 28.2001 28.1998 24.7006 28.1998 20.4V9.60005C28.1998 5.29954 24.7003 1.80005 20.3998 1.80005H9.5998ZM9.5998 3.00005H20.3998C24.0517 3.00005 26.9998 5.94816 26.9998 9.60005V20.4C26.9998 24.0519 24.0517 27 20.3998 27H9.5998C5.94791 27 2.9998 24.0519 2.9998 20.4V9.60005C2.9998 5.94816 5.94791 3.00005 9.5998 3.00005ZM22.1998 6.60005C21.8815 6.60005 21.5763 6.72648 21.3513 6.95152C21.1262 7.17656 20.9998 7.48179 20.9998 7.80005C20.9998 8.11831 21.1262 8.42353 21.3513 8.64858C21.5763 8.87362 21.8815 9.00005 22.1998 9.00005C22.5181 9.00005 22.8233 8.87362 23.0483 8.64858C23.2734 8.42353 23.3998 8.11831 23.3998 7.80005C23.3998 7.48179 23.2734 7.17656 23.0483 6.95152C22.8233 6.72648 22.5181 6.60005 22.1998 6.60005ZM14.9998 8.40005C11.3618 8.40005 8.39981 11.3621 8.39981 15C8.39981 18.638 11.3618 21.6 14.9998 21.6C18.6378 21.6 21.5998 18.638 21.5998 15C21.5998 11.3621 18.6378 8.40005 14.9998 8.40005ZM14.9998 9.60005C17.9893 9.60005 20.3998 12.0106 20.3998 15C20.3998 17.9895 17.9893 20.4 14.9998 20.4C12.0104 20.4 9.5998 17.9895 9.5998 15C9.5998 12.0106 12.0104 9.60005 14.9998 9.60005Z" fill="black"/>
</svg>
