<svg width="87" height="44" viewBox="0 0 87 44" fill="none" xmlns="http://www.w3.org/2000/svg">
<g clip-path="url(#clip0_1571_848)">
<path d="M21.0192 42.9524C20.5536 42.9646 20.0905 42.8816 19.658 42.7086C19.2256 42.5356 18.833 42.2763 18.5042 41.9464C17.836 41.2744 17.502 40.2722 17.502 38.9283C17.5014 37.8741 17.7089 36.8303 18.1125 35.8564C18.509 34.8822 19.0543 33.9754 19.7291 33.1685C20.3576 32.4111 21.1123 31.768 21.96 31.2678C22.6893 30.8216 23.5243 30.5777 24.3791 30.5613C25.2392 30.5613 25.8267 30.8147 26.1416 31.3292C26.4433 31.7992 26.6057 32.3451 26.61 32.9036C26.6211 33.4662 26.4748 34.0208 26.1877 34.5048C26.0773 34.7144 25.9115 34.8897 25.7084 35.0116C25.5053 35.1335 25.2726 35.1972 25.0357 35.196C24.8575 35.195 24.682 35.1516 24.5238 35.0695C24.3655 34.9874 24.2291 34.8689 24.1257 34.7237C24.5027 34.4819 24.79 34.1231 24.9436 33.7023C25.1612 33.246 25.279 32.7485 25.2891 32.2431C25.3002 32.0388 25.2508 31.8358 25.1471 31.6595C25.0785 31.5841 24.9928 31.5263 24.8973 31.4909C24.8017 31.4555 24.6991 31.4435 24.598 31.456C23.9436 31.4947 23.3249 31.7672 22.8547 32.2239C22.2047 32.7856 21.6429 33.4419 21.1882 34.1707C20.6773 34.9584 20.2561 35.8007 19.9326 36.682C19.6236 37.4745 19.4585 38.3158 19.4449 39.1664C19.4396 39.7943 19.6027 40.4122 19.9172 40.9557C20.2282 41.501 20.8388 41.7736 21.7373 41.7736C22.6255 41.7601 23.496 41.5223 24.2677 41.0824C25.1729 40.5737 25.9761 39.9019 26.6369 39.1011C27.3933 38.2051 27.9895 37.1854 28.3994 36.0868L28.8064 36.4017C28.3404 37.6293 27.6719 38.7701 26.8289 39.7769C26.0546 40.7165 25.1183 41.5098 24.0642 42.1192C23.1385 42.6559 22.0893 42.9431 21.0192 42.9524V42.9524Z" fill="#A260A3"/>
<path d="M29.9738 42.1958C29.0702 42.1958 28.4302 41.9194 28.0539 41.3664C27.6614 40.7647 27.4631 40.057 27.4856 39.339C27.492 38.6565 27.5981 37.9787 27.8005 37.3269C28.0053 36.6491 28.2847 35.9962 28.6337 35.3801C28.9341 34.8275 29.3232 34.3281 29.7857 33.9018C30.1346 33.5588 30.5985 33.3576 31.0874 33.3373C31.199 33.3381 31.31 33.3536 31.4176 33.3834C31.5328 33.418 31.6442 33.4525 31.7478 33.4948C31.4794 33.7693 31.2518 34.0809 31.072 34.4202C30.7903 34.9141 30.5439 35.4273 30.3348 35.9561C30.109 36.5154 29.9154 37.0872 29.755 37.6687C29.6119 38.1385 29.5319 38.6253 29.5169 39.1163C29.478 39.5923 29.588 40.0687 29.8318 40.4794C29.9221 40.6127 30.0441 40.7214 30.1869 40.7958C30.3297 40.8702 30.4887 40.9079 30.6496 40.9056C31.2354 40.8449 31.7861 40.5972 32.2201 40.1991C32.8849 39.6679 33.4854 39.0609 34.0095 38.3906C33.3994 37.8759 32.9292 37.2155 32.6425 36.4706C32.3244 35.7091 32.16 34.8922 32.1587 34.0669C32.1534 33.4008 32.2759 32.74 32.5196 32.1201C32.7332 31.5482 33.0966 31.0443 33.5718 30.661C34.0447 30.2892 34.633 30.0949 35.2344 30.1119C36.0945 30.1119 36.6705 30.3423 36.9623 30.803C37.283 31.3266 37.4432 31.9327 37.4231 32.5463C37.3975 33.4811 37.1942 34.4024 36.8241 35.2611C36.4215 36.2685 35.9172 37.2322 35.3189 38.1371C35.6833 38.343 36.0946 38.4514 36.5131 38.452C36.8976 38.4425 37.2784 38.3739 37.642 38.2485C38.0962 38.0914 38.5169 37.8504 38.8822 37.5381C39.3153 37.1743 39.655 36.7122 39.8729 36.1903L40.2569 36.5013C39.927 37.384 39.2996 38.1241 38.4829 38.5941C37.816 38.9744 37.0655 39.1841 36.298 39.2046C36.0402 39.2039 35.783 39.1782 35.5301 39.1278C35.2811 39.0764 35.0389 38.9965 34.8082 38.8897C34.1441 39.7835 33.3553 40.5774 32.4659 41.2474C31.7618 41.8285 30.8861 42.1618 29.9738 42.1958V42.1958ZM34.5816 37.588C35.1001 36.824 35.5376 36.0082 35.8872 35.1536C36.214 34.3934 36.39 33.5771 36.4056 32.7498C36.4389 32.2883 36.346 31.8263 36.1368 31.4136C36.0744 31.2879 35.9788 31.1818 35.8603 31.1066C35.7418 31.0315 35.605 30.9902 35.4648 30.9873C35.0424 30.9873 34.6162 31.2945 34.1746 31.9012C33.7143 32.5791 33.4829 33.3864 33.5142 34.2051C33.5156 34.8279 33.6061 35.4473 33.7829 36.0444C33.9403 36.6076 34.2152 37.131 34.5893 37.5803L34.5816 37.588Z" fill="#A260A3"/>
<path d="M41.8812 42.1461C40.9776 42.1461 40.3376 41.8376 39.9613 41.2207C39.5544 40.5229 39.3534 39.7241 39.3815 38.9168C39.413 37.7044 39.6027 36.5013 39.946 35.338C40.3579 33.8535 40.8567 32.3944 41.4397 30.9683C42.0566 29.4324 42.7324 27.94 43.4671 26.4911C44.2018 25.0422 44.9339 23.7174 45.6635 22.5168C46.2616 21.5117 46.9396 20.5564 47.6909 19.66C48.3091 18.9458 48.7968 18.5925 49.1539 18.5925C49.2745 18.5973 49.3913 18.6359 49.4911 18.7037C49.5908 18.7716 49.6696 18.8661 49.7183 18.9765C49.877 19.2724 49.9933 19.5891 50.0639 19.9173C50.1429 20.2417 50.1854 20.574 50.1906 20.9079C50.1561 21.6632 50.0125 22.4094 49.7644 23.1235C49.431 24.164 49.0322 25.1823 48.5702 26.1724C48.0308 27.3374 47.4231 28.4696 46.7501 29.5629C46.048 30.7021 45.2787 31.7983 44.4462 32.846C43.6715 33.8339 42.7922 34.7351 41.8236 35.5339C41.6969 36.0983 41.6009 36.6474 41.5241 37.1812C41.4534 37.6901 41.4174 38.2033 41.4166 38.7171C41.3772 39.3444 41.496 39.9716 41.7622 40.541C41.8616 40.7276 42.0116 40.8824 42.195 40.9877C42.3784 41.093 42.5877 41.1444 42.799 41.1362C43.4366 41.1027 44.0378 40.8282 44.4808 40.3682C45.0836 39.8046 45.6114 39.1658 46.0513 38.4675C46.5377 37.7117 46.9627 36.9182 47.3223 36.0945L47.7946 36.3479C47.1094 37.89 46.1869 39.3152 45.0606 40.5717C44.0648 41.6213 43.005 42.1461 41.8812 42.1461ZM42.1001 34.4664C42.877 33.6802 43.5908 32.8341 44.2351 31.936C44.9249 30.9797 45.5657 29.9891 46.155 28.9678C46.754 27.9425 47.2839 26.9442 47.7447 25.9842C48.1523 25.1425 48.5087 24.277 48.8121 23.3923C49.0258 22.8215 49.1552 22.2226 49.1961 21.6145C49.2121 21.4737 49.1839 21.3315 49.1155 21.2075C49.0656 21.146 49.0195 21.1115 48.9773 21.1115C48.8083 21.1115 48.5203 21.3802 48.1133 21.914C47.5982 22.6049 47.12 23.3227 46.681 24.0643C46.1409 24.9654 45.5867 25.9893 45.0184 27.1362C44.4501 28.283 43.9099 29.4874 43.398 30.7495C42.903 31.9658 42.4698 33.2063 42.1001 34.4664V34.4664Z" fill="#A260A3"/>
<path d="M48.9428 42.0077C48.6002 42.0332 48.2565 41.9769 47.94 41.8433C47.6236 41.7098 47.3434 41.5029 47.1227 41.2397C46.7158 40.7029 46.5045 40.0431 46.5237 39.3697C46.5439 38.7535 46.6341 38.1417 46.7925 37.5458C46.986 36.7656 47.2218 35.9965 47.499 35.2419C47.7811 34.458 48.1225 33.6968 48.5204 32.9649C48.8534 32.3306 49.2705 31.7441 49.7606 31.2216C49.9197 31.0285 50.1158 30.8693 50.3374 30.7532C50.559 30.6372 50.8015 30.5666 51.0508 30.5458C51.2279 30.5418 51.4002 30.6033 51.5346 30.7186C51.6063 30.7836 51.6622 30.8641 51.6981 30.9539C51.734 31.0437 51.749 31.1405 51.742 31.237C51.6714 31.6762 51.505 32.0944 51.2543 32.4619C50.928 33.0263 50.5478 33.6753 50.1024 34.4087C49.6585 35.1452 49.2733 35.9156 48.9504 36.7126C48.6408 37.4419 48.4752 38.2242 48.4628 39.0165C48.4628 39.7844 48.5895 40.2721 48.8468 40.5255C49.0041 40.6621 49.1869 40.7663 49.3845 40.8321C49.5822 40.898 49.7909 40.9243 49.9987 40.9095C50.7104 40.9095 51.4694 40.5537 52.2757 39.842C53.0821 39.1304 53.9358 37.8837 54.8369 36.102L55.1172 36.4169C54.6408 38.014 53.7334 39.4489 52.4946 40.5639C51.5235 41.4578 50.2621 41.9706 48.9428 42.0077V42.0077ZM52.7135 27.6198C52.3975 27.6244 52.0868 27.5377 51.8188 27.3702C51.6937 27.2865 51.5925 27.1717 51.5252 27.0371C51.4579 26.9024 51.4267 26.7526 51.4348 26.6023C51.4502 26.3597 51.5293 26.1255 51.6642 25.9232C51.799 25.721 51.9848 25.5579 52.2028 25.4503C52.6574 25.144 53.1906 24.9747 53.7387 24.9627C54.0125 24.948 54.2832 25.0265 54.5067 25.1854C54.6108 25.2821 54.6905 25.4021 54.7392 25.5356C54.788 25.6691 54.8043 25.8123 54.787 25.9533C54.7719 26.1812 54.7061 26.4029 54.5945 26.6022C54.4829 26.8015 54.3283 26.9733 54.1419 27.1053C53.747 27.4471 53.2395 27.6304 52.7173 27.6198H52.7135Z" fill="#A260A3"/>
<path d="M57.179 43.4862C56.0885 43.4862 55.277 43.1303 54.7446 42.4187C54.1699 41.5678 53.8882 40.5527 53.9421 39.5273C53.9717 38.274 54.1508 37.0288 54.4758 35.818C54.8628 34.3012 55.3359 32.8077 55.8927 31.3446C56.4763 29.7805 57.1304 28.2561 57.8549 26.7714C58.5793 25.2866 59.3076 23.9414 60.0397 22.7357C60.6407 21.7103 61.3348 20.7425 62.1132 19.8443C62.7634 19.1224 63.2972 18.7615 63.7144 18.7615C64.0715 18.7615 64.325 18.9803 64.4824 19.4219C64.6374 19.8439 64.718 20.2895 64.7205 20.739C64.6936 21.4664 64.5644 22.1864 64.3365 22.8778C64.0499 23.8003 63.6917 24.6989 63.2652 25.5657C62.7937 26.5367 62.2589 27.4757 61.664 28.3764C61.0779 29.2705 60.4218 30.1166 59.7018 30.9069C59.0744 31.609 58.3488 32.2169 57.5477 32.7116C57.3333 33.1764 57.1499 33.6549 56.9986 34.1439C56.7325 34.9578 56.512 35.7859 56.3381 36.6244C56.144 37.5176 56.0449 38.4289 56.0424 39.343C56.0147 40.0691 56.1457 40.7924 56.4264 41.4626C56.5356 41.7226 56.7227 41.9425 56.9621 42.0917C57.2014 42.2409 57.4811 42.3123 57.7627 42.2958C58.455 42.2635 59.1174 42.0044 59.6481 41.5586C60.3078 41.0511 60.8445 40.4014 61.2185 39.6579C60.4663 39.2829 59.8589 38.6701 59.4906 37.9146C59.1247 37.2012 58.9301 36.4124 58.9223 35.6107C58.8781 34.7349 59.1584 33.8736 59.7095 33.1916C59.9302 32.9101 60.2116 32.6821 60.5328 32.5245C60.8539 32.367 61.2064 32.2839 61.5641 32.2815C61.8472 32.2739 62.1277 32.3374 62.38 32.4662C62.6322 32.595 62.8481 32.785 63.0079 33.0188C63.4057 33.6638 63.5923 34.4168 63.5417 35.1729C63.5395 35.8765 63.4557 36.5775 63.2921 37.2618C63.1211 37.9865 62.8632 38.6878 62.5241 39.3507C62.6278 39.3699 62.7391 39.3852 62.8543 39.3967C63.3155 39.4409 63.7809 39.3897 64.2215 39.2463C64.6621 39.103 65.0685 38.8706 65.4155 38.5635C66.1018 37.9507 66.6761 37.2231 67.1127 36.4132C67.5927 35.5495 68.0073 34.651 68.353 33.7253C68.6985 32.7961 68.9942 31.9705 69.2476 31.2601C69.1642 31.1574 69.0909 31.0468 69.0288 30.9299C68.9562 30.7781 68.9232 30.6103 68.9328 30.4422C68.9268 29.9144 69.1107 29.402 69.4511 28.9985C69.7967 28.5799 70.0847 28.3687 70.3151 28.3687C70.4841 28.3687 70.5877 28.4763 70.63 28.6836C70.6608 28.8175 70.6814 28.9536 70.6914 29.0906C70.6818 29.3157 70.6228 29.536 70.5186 29.7357C70.4172 29.9256 70.3583 30.1352 70.3458 30.3501C70.3632 30.5007 70.4166 30.645 70.5015 30.7706C70.5864 30.8963 70.7002 30.9996 70.8335 31.072L71.9509 31.8707C72.3787 32.188 72.7545 32.5702 73.0644 33.0034C73.4037 33.497 73.5747 34.0868 73.5521 34.6853C73.549 35.3378 73.4186 35.9834 73.1681 36.586C72.9032 37.2234 72.6421 37.8378 72.4002 38.4214C72.1653 38.9129 72.0346 39.4476 72.0162 39.9919C71.9986 40.1267 72.015 40.2637 72.064 40.3904C72.113 40.5172 72.1929 40.6297 72.2965 40.7177C72.4934 40.8439 72.7231 40.9093 72.9569 40.9058C73.5017 40.8874 74.0318 40.7244 74.4928 40.4335C75.0493 40.0962 75.5647 39.6954 76.0288 39.2393C76.5214 38.766 76.9735 38.2522 77.3804 37.7034C77.735 37.2457 78.0305 36.7452 78.2597 36.2135L78.6706 36.5245C78.2408 37.4562 77.6909 38.3276 77.0348 39.1164C76.3827 39.9318 75.605 40.6382 74.7309 41.2092C73.9541 41.7289 73.0429 42.0117 72.1083 42.0232C71.4984 42.0599 70.8973 41.8636 70.4265 41.4741C70.2161 41.2801 70.0517 41.0414 69.9454 40.7757C69.8391 40.5099 69.7935 40.2238 69.8121 39.9382C69.8264 39.2747 69.9767 38.6213 70.2537 38.0182C70.5455 37.3399 70.8335 36.6538 71.1176 35.9601C71.3781 35.3646 71.5215 34.7245 71.54 34.0747C71.5607 33.8035 71.5192 33.531 71.4187 33.2782C71.3182 33.0253 71.1614 32.7987 70.9602 32.6156C70.5826 32.2977 70.1891 31.9991 69.7814 31.7209C69.5254 32.5145 69.2272 33.3938 68.8867 34.3589C68.5453 35.3144 68.1133 36.235 67.5965 37.1082C67.1178 37.9378 66.4843 38.6678 65.7303 39.2585C64.9718 39.8336 64.04 40.1329 63.0886 40.1071C62.9421 40.1064 62.7959 40.0962 62.6508 40.0764L62.1785 40.015C61.6338 40.954 60.9265 41.7887 60.0896 42.4801C59.2703 43.1515 58.2381 43.5082 57.179 43.4862V43.4862ZM57.9009 31.4829C58.542 30.9693 59.1171 30.3786 59.6135 29.7242C60.1799 28.9991 60.6993 28.2386 61.1686 27.4472C61.6525 26.6408 62.0787 25.8498 62.4588 25.0742C62.7968 24.3924 63.0905 23.6895 63.3381 22.9699C63.5102 22.5164 63.6162 22.0405 63.653 21.5569C63.6603 21.4872 63.6483 21.4168 63.6184 21.3534C63.6096 21.337 63.5961 21.3236 63.5798 21.3147C63.5634 21.3059 63.5448 21.3019 63.5263 21.3034C63.3573 21.3034 63.0386 21.6029 62.5663 22.202C61.9887 22.9598 61.4639 23.7565 60.9958 24.5865C60.4199 25.5849 59.849 26.6856 59.2833 27.8888C58.7341 29.0509 58.272 30.2522 57.9009 31.4829ZM61.5449 39.0243C61.7795 38.5338 61.9586 38.0186 62.0787 37.4883C62.2067 36.9486 62.2712 36.3958 62.2707 35.8411C62.2972 35.2502 62.195 34.6606 61.9712 34.1131C61.7715 33.6946 61.5257 33.4834 61.2339 33.4834C60.9421 33.4834 60.6387 33.6984 60.4007 34.1285C60.1432 34.6273 60.0189 35.1841 60.0397 35.7451C60.0485 36.3572 60.1655 36.963 60.3853 37.5344C60.5953 38.1462 61.0034 38.6705 61.5449 39.0243Z" fill="#A260A3"/>
<path d="M79.8304 42.0078C79.4878 42.034 79.1439 41.9779 78.8274 41.8443C78.5108 41.7107 78.2307 41.5035 78.0104 41.2399C77.6035 40.703 77.3922 40.0432 77.4114 39.3698C77.4297 38.7535 77.5199 38.1414 77.6801 37.5459C77.8719 36.7652 78.1078 35.996 78.3867 35.242C78.6687 34.4581 79.0102 33.6969 79.4081 32.965C79.7397 32.3298 80.157 31.7433 80.6483 31.2217C80.8065 31.0286 81.0019 30.8693 81.2229 30.7532C81.4439 30.6371 81.6859 30.5666 81.9347 30.5459C82.1129 30.542 82.2864 30.6035 82.4223 30.7187C82.4935 30.7839 82.5488 30.8645 82.5841 30.9543C82.6194 31.0442 82.6336 31.1409 82.6258 31.2371C82.5572 31.6761 82.392 32.0945 82.142 32.462C81.8144 33.0277 81.4304 33.6767 80.9901 34.4088C80.5463 35.1454 80.1611 35.9157 79.8381 36.7127C79.5303 37.4426 79.3648 38.2246 79.3505 39.0166C79.3505 39.7692 79.4785 40.2722 79.7345 40.5256C79.8917 40.6624 80.0744 40.7667 80.2721 40.8325C80.4698 40.8984 80.6786 40.9246 80.8864 40.9096C81.6006 40.9096 82.3571 40.5525 83.1673 39.8421C83.9775 39.1318 84.8261 37.8838 85.7246 36.1021L86.0088 36.417C85.5324 38.0141 84.6249 39.449 83.3861 40.564C82.4137 41.4582 81.151 41.9709 79.8304 42.0078V42.0078ZM83.6012 27.62C83.2851 27.6245 82.9745 27.5378 82.7065 27.3704C82.5814 27.2866 82.4802 27.1718 82.4129 27.0372C82.3455 26.9025 82.3144 26.7527 82.3225 26.6024C82.3372 26.3596 82.416 26.1251 82.5509 25.9227C82.6858 25.7203 82.872 25.5573 83.0905 25.4504C83.5451 25.1441 84.0783 24.9748 84.6264 24.9628C84.9004 24.9466 85.1716 25.0252 85.3944 25.1855C85.4989 25.282 85.5792 25.4019 85.6286 25.5354C85.678 25.6689 85.6951 25.8121 85.6785 25.9535C85.6634 26.1813 85.5976 26.403 85.4861 26.6023C85.3745 26.8016 85.2198 26.9734 85.0334 27.1054C84.6362 27.4483 84.1258 27.6317 83.6012 27.62V27.62Z" fill="#A260A3"/>
<path d="M17.4213 18.3115H4.41964L1.04059 25.9912H0L11.4043 -0.012207H12.8481L24.2178 26.018H20.762L17.4213 18.3115ZM17.0719 17.5704L10.9282 3.41678L4.71532 17.5704H17.0719Z" fill="#A260A3"/>
<path d="M50.4438 26.0187H46.6577C45.8662 25.4516 45.2104 24.7159 44.7378 23.8646L40.7981 16.9529C40.2646 16.051 39.4764 15.3269 38.5326 14.8717H32.2084V26.0072H28.8984V0H39.1162C44.492 0 48.5507 3.15635 48.5507 7.39168C48.5507 11.2546 45.3176 14.192 40.752 14.7488C42.5337 15.2672 43.9813 16.1964 44.7262 17.4981L48.0669 23.1811C48.6591 24.278 49.4677 25.2433 50.4438 26.0187V26.0187ZM32.2084 14.1152H38.4827C42.4607 14.1152 45.0949 11.4773 45.0949 7.43008C45.0949 3.3829 42.4607 0.744929 38.4827 0.744929H32.2084V14.1152Z" fill="#A260A3"/>
<path d="M71.6934 0.744929H62.9655V26.0187H59.6594V0.744929H50.8623V0H71.7011L71.6934 0.744929Z" fill="#A260A3"/>
<path d="M20.2512 42.1844C19.7856 42.1965 19.3224 42.1135 18.89 41.9405C18.4575 41.7676 18.0649 41.5082 17.7361 41.1783C17.068 40.5064 16.7339 39.5042 16.7339 38.1602C16.7334 37.1061 16.9408 36.0622 17.3444 35.0883C17.7409 34.1141 18.2863 33.2073 18.961 32.4005C19.5895 31.643 20.3443 31 21.1919 30.4998C21.9212 30.0535 22.7562 29.8096 23.611 29.7932C24.4712 29.7932 25.0587 30.0466 25.3735 30.5612C25.6752 31.0312 25.8377 31.577 25.842 32.1355C25.853 32.6982 25.7067 33.2527 25.4196 33.7367C25.3092 33.9463 25.1435 34.1216 24.9403 34.2435C24.7372 34.3654 24.5045 34.4292 24.2676 34.4279C24.0894 34.4269 23.9139 34.3836 23.7557 34.3014C23.5975 34.2193 23.461 34.1008 23.3576 33.9556C23.7347 33.7138 24.022 33.355 24.1755 32.9342C24.3931 32.4779 24.5109 31.9805 24.5211 31.4751C24.5321 31.2708 24.4827 31.0678 24.379 30.8914C24.3104 30.8161 24.2247 30.7583 24.1292 30.7229C24.0337 30.6875 23.931 30.6755 23.8299 30.6879C23.1755 30.7266 22.5569 30.9992 22.0866 31.4559C21.4366 32.0175 20.8748 32.6738 20.4201 33.4027C19.9092 34.1903 19.4881 35.0326 19.1645 35.9139C18.8555 36.7065 18.6904 37.5478 18.6768 38.3983C18.6715 39.0262 18.8346 39.6441 19.1491 40.1877C19.4602 40.7329 20.0707 41.0055 20.9692 41.0055C21.8575 40.992 22.7279 40.7543 23.4997 40.3144C24.4048 39.8056 25.208 39.1339 25.8689 38.333C26.6252 37.437 27.2214 36.4173 27.6313 35.3187L28.0384 35.6336C27.5723 36.8612 26.9039 38.0021 26.0609 39.0088C25.2866 39.9484 24.3502 40.7417 23.2962 41.3511C22.3705 41.8879 21.3212 42.175 20.2512 42.1844V42.1844Z" fill="#EDC454"/>
<path d="M29.2058 41.428C28.3021 41.428 27.6622 41.1515 27.2858 40.5986C26.8934 39.9969 26.695 39.2892 26.7175 38.5712C26.7239 37.8887 26.83 37.2109 27.0324 36.5591C27.2372 35.8813 27.5167 35.2284 27.8657 34.6123C28.166 34.0597 28.5552 33.5603 29.0176 33.134C29.3665 32.791 29.8304 32.5898 30.3193 32.5695C30.4309 32.5703 30.542 32.5857 30.6495 32.6156C30.7647 32.6501 30.8761 32.6847 30.9798 32.7269C30.7113 33.0015 30.4837 33.3131 30.304 33.6523C30.0222 34.1462 29.7758 34.6595 29.5667 35.1883C29.3409 35.7476 29.1473 36.3194 28.9869 36.9008C28.8439 37.3707 28.7638 37.8575 28.7488 38.3485C28.7099 38.8245 28.82 39.3008 29.0637 39.7116C29.154 39.8449 29.2761 39.9536 29.4188 40.028C29.5616 40.1024 29.7206 40.1401 29.8816 40.1378C30.4674 40.0771 31.018 39.8294 31.4521 39.4313C32.1168 38.9001 32.7173 38.2931 33.2414 37.6227C32.6313 37.1081 32.1611 36.4477 31.8744 35.7028C31.5564 34.9413 31.392 34.1244 31.3906 33.2991C31.3853 32.633 31.5079 31.9722 31.7516 31.3523C31.9652 30.7804 32.3286 30.2764 32.8037 29.8931C33.2767 29.5213 33.865 29.327 34.4663 29.344C35.3265 29.344 35.9024 29.5744 36.1943 30.0352C36.5149 30.5588 36.6751 31.1649 36.655 31.7785C36.6294 32.7132 36.4261 33.6345 36.056 34.4933C35.6535 35.5007 35.1491 36.4643 34.5508 37.3693C34.9152 37.5752 35.3265 37.6836 35.745 37.6842C36.1295 37.6747 36.5103 37.6061 36.8739 37.4807C37.3282 37.3236 37.7489 37.0826 38.1142 36.7703C38.5472 36.4065 38.8869 35.9444 39.1049 35.4225L39.4888 35.7335C39.1589 36.6162 38.5316 37.3562 37.7148 37.8262C37.0479 38.2066 36.2974 38.4163 35.53 38.4368C35.2721 38.4361 35.0149 38.4104 34.762 38.36C34.5131 38.3085 34.2708 38.2287 34.0401 38.1219C33.376 39.0157 32.5872 39.8096 31.6978 40.4796C30.9938 41.0607 30.118 41.394 29.2058 41.428V41.428ZM33.8136 36.8202C34.332 36.0562 34.7696 35.2403 35.1191 34.3858C35.4459 33.6256 35.622 32.8093 35.6375 31.982C35.6708 31.5205 35.5779 31.0585 35.3687 30.6457C35.3063 30.5201 35.2107 30.414 35.0922 30.3388C34.9738 30.2637 34.837 30.2224 34.6967 30.2195C34.2743 30.2195 33.8481 30.5267 33.4065 31.1334C32.9462 31.8112 32.7148 32.6185 32.7461 33.4373C32.7475 34.0601 32.838 34.6795 33.0149 35.2766C33.1723 35.8397 33.4471 36.3632 33.8212 36.8125L33.8136 36.8202Z" fill="#EDC454"/>
<path d="M41.1132 41.3781C40.2095 41.3781 39.5695 41.0697 39.1932 40.4527C38.7863 39.7549 38.5853 38.9561 38.6134 38.1488C38.6449 36.9364 38.8347 35.7333 39.1779 34.5701C39.5899 33.0856 40.0886 31.6265 40.6716 30.2004C41.2885 28.6644 41.9643 27.172 42.699 25.7231C43.4337 24.2742 44.1658 22.9495 44.8954 21.7489C45.4935 20.7438 46.1715 19.7884 46.9228 18.8921C47.541 18.1778 48.0287 17.8246 48.3858 17.8246C48.5064 17.8294 48.6232 17.8679 48.723 17.9358C48.8228 18.0037 48.9015 18.0982 48.9503 18.2086C49.1089 18.5045 49.2252 18.8211 49.2959 19.1493C49.3748 19.4738 49.4174 19.8061 49.4226 20.14C49.388 20.8952 49.2444 21.6415 48.9964 22.3556C48.663 23.396 48.2641 24.4143 47.8022 25.4044C47.2628 26.5695 46.655 27.7016 45.9821 28.795C45.2799 29.9341 44.5106 31.0304 43.6782 32.0781C42.9034 33.0659 42.0241 33.9671 41.0556 34.7659C40.9289 35.3304 40.8329 35.8795 40.7561 36.4132C40.6853 36.9222 40.6494 37.4353 40.6485 37.9492C40.6091 38.5765 40.728 39.2037 40.9941 39.7731C41.0936 39.9597 41.2435 40.1145 41.4269 40.2198C41.6103 40.325 41.8196 40.3765 42.0309 40.3683C42.6686 40.3347 43.2697 40.0602 43.7127 39.6003C44.3155 39.0366 44.8433 38.3978 45.2832 37.6996C45.7696 36.9438 46.1947 36.1502 46.5542 35.3266L47.0265 35.58C46.3413 37.122 45.4188 38.5473 44.2926 39.8038C43.2968 40.8534 42.237 41.3781 41.1132 41.3781ZM41.332 33.6985C42.1089 32.9123 42.8228 32.0662 43.467 31.168C44.1568 30.2118 44.7976 29.2211 45.3869 28.1998C45.9859 27.1746 46.5158 26.1762 46.9766 25.2163C47.3842 24.3745 47.7407 23.509 48.0441 22.6244C48.2578 22.0536 48.3871 21.4547 48.428 20.8465C48.444 20.7058 48.4158 20.5636 48.3474 20.4395C48.2975 20.3781 48.2514 20.3435 48.2092 20.3435C48.0402 20.3435 47.7523 20.6123 47.3452 21.146C46.8301 21.837 46.352 22.5547 45.913 23.2964C45.3703 24.1974 44.816 25.2214 44.2503 26.3682C43.6846 27.5151 43.1444 28.7195 42.6299 29.9815C42.1349 31.1978 41.7018 32.4384 41.332 33.6985V33.6985Z" fill="#EDC454"/>
<path d="M48.1747 41.2399C47.8321 41.2654 47.4885 41.2091 47.172 41.0755C46.8555 40.942 46.5753 40.7351 46.3546 40.4719C45.9477 39.935 45.7364 39.2753 45.7556 38.6019C45.7759 37.9857 45.866 37.3738 46.0244 36.778C46.2179 35.9978 46.4537 35.2287 46.7309 34.4741C47.013 33.6902 47.3545 32.929 47.7523 32.1971C48.0853 31.5627 48.5025 30.9763 48.9926 30.4538C49.1516 30.2607 49.3477 30.1015 49.5693 29.9854C49.7909 29.8693 50.0335 29.7988 50.2828 29.778C50.4598 29.7739 50.6321 29.8355 50.7666 29.9508C50.8382 30.0158 50.8941 30.0962 50.93 30.186C50.9659 30.2759 50.981 30.3727 50.9739 30.4691C50.9034 30.9083 50.7369 31.3266 50.4863 31.6941C50.1599 32.2585 49.7797 32.9074 49.3343 33.6409C48.8904 34.3774 48.5053 35.1477 48.1824 35.9448C47.8728 36.6741 47.7072 37.4564 47.6947 38.2487C47.6947 39.0166 47.8214 39.5043 48.0787 39.7577C48.2361 39.8942 48.4188 39.9984 48.6165 40.0643C48.8141 40.1302 49.0228 40.1565 49.2306 40.1417C49.9423 40.1417 50.7013 39.7859 51.5077 39.0742C52.314 38.3626 53.1677 37.1159 54.0688 35.3342L54.3492 35.6491C53.8728 37.2462 52.9653 38.6811 51.7265 39.7961C50.7555 40.69 49.494 41.2028 48.1747 41.2399ZM51.9454 26.852C51.6294 26.8566 51.3187 26.7699 51.0507 26.6024C50.9256 26.5187 50.8244 26.4039 50.7571 26.2693C50.6898 26.1346 50.6586 25.9848 50.6667 25.8345C50.6822 25.5919 50.7613 25.3577 50.8961 25.1554C51.0309 24.9532 51.2167 24.79 51.4347 24.6825C51.8894 24.3761 52.4225 24.2069 52.9706 24.1949C53.2444 24.1802 53.5151 24.2587 53.7386 24.4176C53.8427 24.5143 53.9224 24.6343 53.9712 24.7678C54.0199 24.9013 54.0362 25.0445 54.0189 25.1855C54.0038 25.4134 53.9381 25.6351 53.8265 25.8344C53.7149 26.0336 53.5602 26.2055 53.3738 26.3375C52.9789 26.6792 52.4714 26.8626 51.9493 26.852H51.9454Z" fill="#EDC454"/>
<path d="M56.411 42.7182C55.3205 42.7182 54.509 42.3624 53.9765 41.6508C53.4018 40.7998 53.1201 39.7848 53.174 38.7594C53.2036 37.5061 53.3828 36.2608 53.7077 35.0501C54.0947 33.5333 54.5678 32.0397 55.1246 30.5767C55.7083 29.0126 56.3623 27.4882 57.0868 26.0034C57.8112 24.5187 58.5395 23.1735 59.2717 21.9678C59.8727 20.9424 60.5668 19.9745 61.3452 19.0764C61.9954 18.3545 62.5291 17.9935 62.9464 17.9935C63.3035 17.9935 63.5569 18.2124 63.7143 18.654C63.8693 19.0759 63.9499 19.5216 63.9524 19.971C63.9256 20.6985 63.7963 21.4185 63.5684 22.1098C63.2818 23.0323 62.9236 23.931 62.4971 24.7977C62.0257 25.7688 61.4908 26.7077 60.8959 27.6085C60.3098 28.5025 59.6537 29.3487 58.9338 30.1389C58.3063 30.8411 57.5808 31.4489 56.7796 31.9436C56.5653 32.4085 56.3819 32.8869 56.2305 33.3759C55.9644 34.1898 55.7439 35.018 55.5701 35.8564C55.376 36.7497 55.2768 37.661 55.2744 38.5751C55.2466 39.3011 55.3776 40.0245 55.6584 40.6946C55.7675 40.9547 55.9547 41.1745 56.194 41.3237C56.4333 41.473 56.713 41.5443 56.9946 41.5279C57.6869 41.4955 58.3494 41.2365 58.88 40.7906C59.5397 40.2831 60.0765 39.6335 60.4505 38.8899C59.6983 38.5149 59.0909 37.9021 58.7225 37.1466C58.3566 36.4333 58.162 35.6444 58.1543 34.8427C58.1101 33.967 58.3903 33.1057 58.9414 32.4236C59.1622 32.1422 59.4436 31.9141 59.7647 31.7566C60.0858 31.599 60.4384 31.5159 60.7961 31.5136C61.0792 31.5059 61.3597 31.5694 61.6119 31.6982C61.8641 31.827 62.08 32.017 62.2398 32.2508C62.6376 32.8958 62.8242 33.6489 62.7736 34.405C62.7714 35.1086 62.6876 35.8095 62.524 36.4939C62.353 37.2185 62.0951 37.9199 61.756 38.5827C61.8597 38.6019 61.971 38.6173 62.0862 38.6288C62.5475 38.6729 63.0128 38.6217 63.4534 38.4784C63.894 38.335 64.3005 38.1026 64.6474 37.7956C65.3337 37.1827 65.908 36.4551 66.3446 35.6453C66.8247 34.7816 67.2392 33.8831 67.5849 32.9574C67.9305 32.0281 68.2261 31.2026 68.4796 30.4922C68.3961 30.3894 68.3228 30.2789 68.2607 30.162C68.1881 30.0101 68.1551 29.8424 68.1647 29.6743C68.1587 29.1464 68.3427 28.634 68.6831 28.2305C69.0287 27.812 69.3166 27.6008 69.547 27.6008C69.716 27.6008 69.8197 27.7083 69.8619 27.9157C69.8928 28.0496 69.9133 28.1856 69.9234 28.3227C69.9138 28.5478 69.8548 28.768 69.7506 28.9678C69.6491 29.1576 69.5902 29.3673 69.5778 29.5822C69.5951 29.7328 69.6485 29.877 69.7334 30.0027C69.8183 30.1283 69.9322 30.2317 70.0654 30.304L71.1828 31.1027C71.6107 31.4201 71.9864 31.8023 72.2964 32.2355C72.6356 32.729 72.8066 33.3189 72.784 33.9173C72.7809 34.5699 72.6505 35.2155 72.4001 35.818C72.1351 36.4555 71.874 37.0698 71.6321 37.6535C71.3972 38.1449 71.2665 38.6796 71.2481 39.224C71.2305 39.3587 71.247 39.4957 71.2959 39.6225C71.3449 39.7493 71.4248 39.8618 71.5284 39.9497C71.7253 40.0759 71.955 40.1414 72.1888 40.1379C72.7337 40.1195 73.2638 39.9565 73.7248 39.6656C74.2812 39.3282 74.7966 38.9275 75.2607 38.4714C75.7533 37.998 76.2055 37.4842 76.6123 36.9354C76.967 36.4778 77.2624 35.9772 77.4917 35.4456L77.9025 35.7566C77.4727 36.6883 76.9228 37.5596 76.2668 38.3485C75.6146 39.1638 74.8369 39.8702 73.9629 40.4412C73.186 40.961 72.2749 41.2438 71.3403 41.2553C70.7303 41.2919 70.1292 41.0957 69.6584 40.7062C69.448 40.5121 69.2836 40.2735 69.1773 40.0077C69.071 39.742 69.0255 39.4558 69.044 39.1702C69.0583 38.5068 69.2086 37.8533 69.4856 37.2503C69.7774 36.5719 70.0654 35.8859 70.3496 35.1922C70.61 34.5966 70.7534 33.9565 70.7719 33.3068C70.7926 33.0355 70.7511 32.7631 70.6506 32.5102C70.5502 32.2574 70.3934 32.0308 70.1922 31.8477C69.8145 31.5298 69.4211 31.2312 69.0133 30.953C68.7573 31.7465 68.4591 32.6259 68.1186 33.5909C67.7773 34.5464 67.3452 35.4671 66.8285 36.3403C66.3497 37.1698 65.7162 37.8998 64.9623 38.4906C64.2038 39.0656 63.272 39.3649 62.3205 39.3392C62.1741 39.3385 62.0278 39.3282 61.8827 39.3085L61.4104 39.247C60.8657 40.1861 60.1585 41.0208 59.3216 41.7122C58.5022 42.3835 57.47 42.7403 56.411 42.7182V42.7182ZM57.1329 30.7149C57.7739 30.2014 58.3491 29.6107 58.8454 28.9563C59.4118 28.2312 59.9313 27.4706 60.4006 26.6792C60.8844 25.8729 61.3106 25.0819 61.6908 24.3062C62.0288 23.6244 62.3225 22.9216 62.5701 22.202C62.7421 21.7485 62.8481 21.2726 62.8849 20.7889C62.8922 20.7192 62.8802 20.6488 62.8504 20.5854C62.8415 20.5691 62.8281 20.5556 62.8117 20.5468C62.7954 20.5379 62.7768 20.534 62.7582 20.5355C62.5893 20.5355 62.2706 20.835 61.7983 21.434C61.2206 22.1918 60.6959 22.9886 60.2278 23.8186C59.6518 24.8169 59.0809 25.9177 58.5152 27.1208C57.966 28.2829 57.504 29.4843 57.1329 30.7149V30.7149ZM60.7769 38.2563C61.0115 37.7658 61.1905 37.2507 61.3106 36.7204C61.4387 36.1807 61.5031 35.6278 61.5026 35.0731C61.5291 34.4822 61.4269 33.8927 61.2031 33.3452C61.0034 32.9266 60.7577 32.7155 60.4658 32.7155C60.174 32.7155 59.8707 32.9305 59.6326 33.3605C59.3751 33.8593 59.2508 34.4162 59.2717 34.9771C59.2804 35.5893 59.3974 36.1951 59.6172 36.7665C59.8272 37.3783 60.2353 37.9026 60.7769 38.2563V38.2563Z" fill="#EDC454"/>
<path d="M79.0624 41.24C78.7198 41.2661 78.3759 41.2101 78.0593 41.0765C77.7427 40.9429 77.4626 40.7357 77.2423 40.472C76.8354 39.9351 76.6241 39.2754 76.6433 38.602C76.6616 37.9857 76.7518 37.3735 76.9121 36.7781C77.1038 35.9974 77.3397 35.2282 77.6186 34.4742C77.9007 33.6903 78.2422 32.9291 78.64 32.1972C78.9716 31.562 79.389 30.9754 79.8803 30.4539C80.0384 30.2608 80.2338 30.1015 80.4548 29.9854C80.6758 29.8693 80.9178 29.7988 81.1666 29.7781C81.3448 29.7742 81.5183 29.8356 81.6543 29.9509C81.7254 30.0161 81.7808 30.0967 81.816 30.1865C81.8513 30.2763 81.8656 30.3731 81.8578 30.4692C81.7891 30.9083 81.6239 31.3267 81.374 31.6942C81.0463 32.2599 80.6623 32.9088 80.222 33.641C79.7782 34.3775 79.393 35.1479 79.0701 35.9449C78.7622 36.6747 78.5967 37.4567 78.5824 38.2488C78.5824 39.0014 78.7104 39.5044 78.9664 39.7578C79.1236 39.8945 79.3064 39.9988 79.504 40.0647C79.7017 40.1306 79.9105 40.1568 80.1183 40.1418C80.8325 40.1418 81.589 39.7847 82.3992 39.0743C83.2094 38.364 84.058 37.116 84.9565 35.3343L85.2407 35.6492C84.7643 37.2463 83.8569 38.6812 82.6181 39.7962C81.6456 40.6904 80.3829 41.2031 79.0624 41.24V41.24ZM82.8331 26.8521C82.5171 26.8567 82.2064 26.77 81.9384 26.6025C81.8133 26.5188 81.7121 26.404 81.6448 26.2694C81.5775 26.1347 81.5463 25.9849 81.5544 25.8346C81.5691 25.5918 81.6479 25.3572 81.7828 25.1549C81.9177 24.9525 82.1039 24.7895 82.3224 24.6826C82.7771 24.3762 83.3102 24.207 83.8583 24.195C84.1323 24.1787 84.4035 24.2574 84.6263 24.4177C84.7309 24.5142 84.8111 24.6341 84.8605 24.7676C84.9099 24.901 84.927 25.0443 84.9104 25.1856C84.8953 25.4135 84.8296 25.6352 84.718 25.8345C84.6064 26.0337 84.4518 26.2056 84.2654 26.3376C83.8681 26.6805 83.3578 26.8638 82.8331 26.8521V26.8521Z" fill="#EDC454"/>
</g>
<defs>
<clipPath id="clip0_1571_848">
<rect width="86.02" height="43.4861" fill="white"/>
</clipPath>
</defs>
</svg>
