<svg width="10" height="10" viewBox="0 0 10 10" fill="none" xmlns="http://www.w3.org/2000/svg">
<g clip-path="url(#clip0_1571_865)">
<path d="M4.1998 0.600098C2.32402 0.600098 0.799805 2.12432 0.799805 4.0001C0.799805 5.87588 2.32402 7.4001 4.1998 7.4001C4.94199 7.4001 5.62793 7.16104 6.1873 6.75635L8.81855 9.38135L9.38105 8.81885L6.78105 6.2126C7.29199 5.61729 7.5998 4.84463 7.5998 4.0001C7.5998 2.12432 6.07559 0.600098 4.1998 0.600098ZM4.1998 1.0001C5.85918 1.0001 7.1998 2.34072 7.1998 4.0001C7.1998 5.65947 5.85918 7.0001 4.1998 7.0001C2.54043 7.0001 1.1998 5.65947 1.1998 4.0001C1.1998 2.34072 2.54043 1.0001 4.1998 1.0001Z" fill="black"/>
</g>
<defs>
<clipPath id="clip0_1571_865">
<rect width="10" height="10" fill="white"/>
</clipPath>
</defs>
</svg>
